<svg xmlns="http://www.w3.org/2000/svg" width="376" height="128" fill="none"><path stroke="#A6CA47" stroke-miterlimit="10" stroke-width="3" d="M163.162 118.211c29.223 0 52.914-23.73 52.914-53.004 0-29.272-23.691-53.003-52.914-53.003-29.223 0-52.914 23.73-52.914 53.003 0 29.274 23.691 53.004 52.914 53.004Z"/><path stroke="#000" stroke-linecap="round" stroke-linejoin="round" stroke-width="3" d="M186.435 69.67v-4.209a4.122 4.122 0 0 0-1.169-2.877l-20.49-20.444c-.685-.704-.178-1.884.8-1.87h20.414"/><path stroke="#000" stroke-linecap="round" stroke-linejoin="round" stroke-width="3" d="M186.435 89.981c11.526 0 21.161-9.095 21.161-20.31 0-11.216-9.342-20.311-20.867-20.311-7.217 0-13.58 3.568-17.324 8.988-.218.316-.418.65-.609.989l-11.864 20.925c-3.997 5.897-10.271 9.723-17.808 9.723-11.525 0-20.867-9.095-20.867-20.31 0-11.215 9.342-20.31 20.867-20.31 9.565 0 17.626 6.266 20.09 14.81"/><path fill="#000" stroke="#000" stroke-linecap="round" stroke-linejoin="round" stroke-width="2.5" d="M40.545 57.818 25.466 91.331h-.507L9.797 57.818h1.863l13.553 30.457 13.553-30.457h1.779ZM74.592 88.787a14.426 14.426 0 0 0 4.7-3.01l1.102 1.189a18.259 18.259 0 0 1-5.295 3.18 16.722 16.722 0 0 1-6.141 1.144c-3.108 0-5.927-.734-8.47-2.204a16.197 16.197 0 0 1-6.012-6.022c-1.468-2.543-2.201-5.345-2.201-8.4 0-3.056.747-5.853 2.245-8.4a16.838 16.838 0 0 1 6.056-6.067c2.54-1.497 5.336-2.25 8.387-2.25 3.388 0 6.336.99 8.853 2.971 2.512 1.982 4.42 4.61 5.718 7.888l-28.458 11.54c1.13 2.771 2.908 5.047 5.336 6.829 2.428 1.782 5.278 2.672 8.555 2.672 1.974 0 3.855-.351 5.634-1.06h-.01ZM61.377 61.511a14.948 14.948 0 0 0-5.42 5.514c-1.33 2.32-1.993 4.864-1.993 7.634 0 1.586.196 2.998.592 4.24L81.404 68.04c-1.298-2.543-3.037-4.61-5.212-6.195-2.174-1.581-4.615-2.374-7.327-2.374-2.713 0-5.207.677-7.497 2.035l.009.005ZM98.687 28.239v62.985h-1.694V28.239h1.694Z"/><path stroke="#A1CB42" stroke-linecap="round" stroke-linejoin="round" stroke-width="2.5" d="M249.643 61.105c1.765 1.773 2.703 4.094 2.814 6.953v23.433h-1.681v-23.26c-.111-2.404-.88-4.364-2.312-5.878-1.427-1.515-3.433-2.33-6.007-2.446a13.86 13.86 0 0 0-6.599 1.63 13.207 13.207 0 0 0-4.958 4.548c-1.262 1.946-1.889 4.151-1.889 6.61V91.49h-1.681V59.048h1.263l.253 8.667c1.009-2.86 2.775-5.122 5.296-6.779 2.521-1.657 5.349-2.49 8.488-2.49 2.913 0 5.252.887 7.017 2.66h-.004ZM267.269 26.943v64.544h-1.681V26.943h1.681ZM317.079 61.105c1.765 1.773 2.703 4.094 2.814 6.953v23.433h-1.681v-23.26c-.111-2.404-.88-4.364-2.312-5.878-1.427-1.515-3.432-2.33-6.007-2.446a13.86 13.86 0 0 0-6.599 1.63 13.207 13.207 0 0 0-4.958 4.548c-1.258 1.946-1.889 4.151-1.889 6.61V91.49h-1.681V59.048h1.263l.253 8.667c1.009-2.86 2.775-5.122 5.296-6.779 2.521-1.657 5.349-2.49 8.488-2.49 2.913 0 5.252.887 7.017 2.66h-.004ZM354.919 89.028a14.228 14.228 0 0 0 4.664-3.047l1.094 1.203a18.28 18.28 0 0 1-5.252 3.22 16.294 16.294 0 0 1-6.091 1.158c-3.082 0-5.883-.744-8.404-2.231-2.521-1.488-4.509-3.519-5.967-6.093-1.459-2.575-2.184-5.408-2.184-8.499 0-3.09.743-5.924 2.228-8.498 1.485-2.575 3.486-4.619 6.007-6.138 2.521-1.514 5.296-2.276 8.32-2.276 3.361 0 6.287 1.002 8.782 3.007 2.494 2.004 4.384 4.663 5.673 7.981L335.554 80.49c1.12 2.806 2.886 5.11 5.296 6.909 2.41 1.804 5.238 2.703 8.488 2.703 1.961 0 3.824-.356 5.589-1.073h-.008ZM341.81 61.435c-2.268 1.372-4.064 3.234-5.38 5.58-1.316 2.348-1.974 4.923-1.974 7.724 0 1.604.195 3.033.587 4.294l26.639-10.988c-1.29-2.575-3.011-4.664-5.167-6.267-2.157-1.604-4.58-2.405-7.27-2.405-2.69 0-5.167.686-7.439 2.058l.004.004ZM282.08 59.047v32.444h-1.681V59.047h1.681Z"/><path fill="#A1CB42" d="M281.217 52.29a3.338 3.338 0 0 0 3.335-3.34 3.338 3.338 0 0 0-3.335-3.34 3.338 3.338 0 0 0-3.335 3.34 3.338 3.338 0 0 0 3.335 3.34Z"/></svg>